<?xml version="1.0" encoding="UTF-8" standalone="no"?>
<!-- Created with Inkscape (http://www.inkscape.org/) -->

<svg
   xmlns:dc="http://purl.org/dc/elements/1.1/"
   xmlns:cc="http://creativecommons.org/ns#"
   xmlns:rdf="http://www.w3.org/1999/02/22-rdf-syntax-ns#"
   xmlns:svg="http://www.w3.org/2000/svg"
   xmlns="http://www.w3.org/2000/svg"
   xmlns:xlink="http://www.w3.org/1999/xlink"
   xmlns:sodipodi="http://sodipodi.sourceforge.net/DTD/sodipodi-0.dtd"
   xmlns:inkscape="http://www.inkscape.org/namespaces/inkscape"
   id="svg2"
   version="1.1"
   inkscape:version="0.92.3 (2405546, 2018-03-11)"
   width="400"
   height="360"
   sodipodi:docname="Comedy_and_tragedy_masks_without_background.svg"
   inkscape:export-filename="/home/tom/Downloads/Comedy_and_tragedy_masks_without_background.svg.png"
   inkscape:export-xdpi="96"
   inkscape:export-ydpi="96">
  <metadata
     id="metadata8">
    <rdf:RDF>
      <cc:Work
         rdf:about="">
        <dc:format>image/svg+xml</dc:format>
        <dc:type
           rdf:resource="http://purl.org/dc/dcmitype/StillImage" />
        <dc:title />
      </cc:Work>
    </rdf:RDF>
  </metadata>
  <defs
     id="defs6">
    <linearGradient
       id="linearGradient2848">
      <stop
         style="stop-color:#000000;stop-opacity:1"
         offset="0"
         id="stop2850" />
      <stop
         style="stop-color:#000003;stop-opacity:0"
         offset="1"
         id="stop2852" />
    </linearGradient>
    <linearGradient
       id="linearGradient2821">
      <stop
         style="stop-color:#c10500;stop-opacity:1"
         offset="0"
         id="stop2823" />
      <stop
         id="stop2829"
         offset="0.27817306"
         style="stop-color:#c20500;stop-opacity:1" />
      <stop
         style="stop-color:#870400;stop-opacity:1"
         offset="1"
         id="stop2825" />
    </linearGradient>
    <radialGradient
       inkscape:collect="always"
       xlink:href="#linearGradient2821"
       id="radialGradient3612"
       gradientUnits="userSpaceOnUse"
       gradientTransform="matrix(0.19245862,-7.3372048e-4,5.9912046e-4,0.15576595,-371.37246,24.291281)"
       cx="2986.0168"
       cy="1053.2979"
       fx="2986.0168"
       fy="1053.2979"
       r="831.04797" />
    <radialGradient
       inkscape:collect="always"
       xlink:href="#linearGradient2848"
       id="radialGradient2854"
       cx="709.8783"
       cy="213.23445"
       fx="709.8783"
       fy="213.23445"
       r="77.24054"
       gradientTransform="matrix(-0.93896343,0.70940583,-0.70287059,-1.0232556,1114.2892,-44.479923)"
       gradientUnits="userSpaceOnUse" />
    <linearGradient
       id="linearGradient2848-4">
      <stop
         style="stop-color:#000000;stop-opacity:1"
         offset="0"
         id="stop2850-0" />
      <stop
         style="stop-color:#000003;stop-opacity:0"
         offset="1"
         id="stop2852-9" />
    </linearGradient>
    <radialGradient
       r="77.24054"
       fy="213.23445"
       fx="709.8783"
       cy="213.23445"
       cx="709.8783"
       gradientTransform="matrix(-1.1037794,-0.02027432,0.02239852,-1.2931499,870.64313,539.70509)"
       gradientUnits="userSpaceOnUse"
       id="radialGradient3649"
       xlink:href="#linearGradient2848-4"
       inkscape:collect="always" />
  </defs>
  <sodipodi:namedview
     pagecolor="#ffffff"
     bordercolor="#666666"
     borderopacity="1"
     objecttolerance="10"
     gridtolerance="10"
     guidetolerance="10"
     inkscape:pageopacity="0"
     inkscape:pageshadow="2"
     inkscape:window-width="1853"
     inkscape:window-height="1025"
     id="namedview4"
     showgrid="false"
     inkscape:zoom="1.0488889"
     inkscape:cx="107.56325"
     inkscape:cy="93.396127"
     inkscape:window-x="67"
     inkscape:window-y="27"
     inkscape:window-maximized="1"
     inkscape:current-layer="svg2" />
  <path
     style="opacity:0.07000002;fill:#000003;fill-opacity:1;fill-rule:nonzero;stroke:none"
     d="m 148.89147,60.653426 c 118.87659,35.330541 139.96338,-0.230459 199.92708,-50.098277 28.32971,77.990306 51.90821,169.720521 32.14471,236.172971 -26.17673,72.51674 -66.51735,85.10831 -127.63,60.7677 C 206.27187,287.6493 163.82145,187.83737 148.89147,60.653426 z"
     id="rect2831-17"
     sodipodi:nodetypes="ccccc"
     inkscape:connector-curvature="0" />
  <path
     style="opacity:0.07042254;fill:#000003;fill-opacity:1;fill-rule:nonzero;stroke:none"
     d="m 86.927778,15.986798 c 1.610905,0.330251 5.140642,0.667114 3.892158,7.814677 -2.406284,13.776042 -8.791181,40.897463 15.680684,58.214686 28.11007,19.891749 92.51891,18.682599 133.7157,2.310362 -5.09997,35.907147 -10.43013,72.073597 -17.29289,102.579837 -9.08324,40.37623 -34.88021,65.14128 -62.1076,92.44102 -19.54949,19.60149 -43.16788,38.95943 -72.986849,35.23635 -24.393562,-3.0457 -30.748799,4.99048 -49.325232,-20.16227 -12.724328,-17.22892 -23.070706,-67.887 -15.066641,-124.3388 0.905751,-6.38823 1.96804,-12.50717 3.208241,-18.68743 0.423544,-2.11068 1.15417,-4.23282 1.518633,-6.36946 3.685866,-21.60951 9.28607,-23.28829 13.141382,-38.5257 5.123078,-20.248111 5.640333,-33.054239 11.758879,-48.042506 2.719973,-6.663032 5.175478,-13.262581 8.576538,-18.987876 8.711278,-14.664506 19.394492,-24.690912 25.287064,-23.482877 z"
     id="rect2831-1-0"
     sodipodi:nodetypes="csscsssssssssss"
     inkscape:connector-curvature="0" />
  <path
     style="fill:#000000;fill-opacity:1;fill-rule:nonzero;stroke:none"
     d="m 152.59731,69.320353 c 114.40865,34.176097 134.717,-0.235724 192.44987,-48.494817 27.2414,75.463213 54.35733,171.330834 35.31221,235.634014 -7.78934,26.29956 -22.17385,47.9397 -49.19354,59.77269 -26.96348,11.8083 -51.16671,3.35903 -78.12507,-8.06927 C 207.75011,288.96318 166.92465,192.38604 152.59731,69.320353 z"
     id="rect2831"
     sodipodi:nodetypes="ccsssc"
     inkscape:connector-curvature="0" />
  <path
     style="fill:#000000;fill-opacity:1;fill-rule:nonzero;stroke:none"
     d="m 87.841826,19.421569 c 4.532467,0.934174 -16.943094,38.547876 18.767894,64.032167 27.00751,19.273254 89.67821,20.838184 129.29165,4.926276 -4.92812,34.832988 -10.83244,67.131108 -17.45136,96.726668 -8.76039,39.17091 -20.20726,73.34781 -46.39996,99.84858 -18.80659,19.02778 -59.75456,49.45665 -88.41639,45.86789 C 60.186739,327.88739 47.231383,320.71885 29.392124,296.3353 17.172758,279.63327 18.964772,223.70216 26.699245,168.93914 c 0.875257,-6.19717 1.900781,-12.13319 3.097331,-18.12881 0.408631,-2.04764 1.112506,-4.10664 1.464374,-6.17938 3.558629,-20.96355 8.943174,-22.59619 12.660098,-37.37904 4.939198,-19.644074 5.445608,-32.066117 11.337925,-46.609033 2.619421,-6.465064 4.984568,-12.868314 8.258034,-18.424304 8.384468,-14.230832 18.661222,-23.964312 24.324792,-22.797008 z"
     id="rect2831-1"
     sodipodi:nodetypes="cscsssssssssss"
     inkscape:connector-curvature="0" />
  <path
     style="fill:url(#radialGradient2854);fill-opacity:1;fill-rule:nonzero;stroke:none"
     d="m 193.78248,146.09427 c 50.32625,-7.91944 84.01119,-15.23619 152.71571,-33.19259 28.32975,77.99035 62.44477,87.5095 42.68129,153.96196 -8.08315,27.17861 -23.02003,49.54128 -51.08764,61.7675 -28.00924,12.20069 -53.1581,3.46632 -81.17049,-8.34693 -47.06143,-19.84649 -48.20896,-47.00597 -63.13887,-174.18994 z"
     id="rect2831-17-1"
     sodipodi:nodetypes="ccsssc"
     inkscape:connector-curvature="0" />
  <path
     style="fill:#ffffff;fill-opacity:1;fill-rule:nonzero;stroke:none"
     d="m 343.27699,26.923995 c -43.22754,43.679412 -75.31747,59.870976 -106.12151,60.034484 -0.66343,9.838509 -2.32954,27.684431 3.65388,37.327471 4.78556,7.71317 18.90328,8.75084 18.48187,19.04786 -0.33825,8.26496 -0.9987,24.10756 -1.72598,40.19836 -0.6397,14.15297 -1.55083,28.46608 0.72146,38.43692 0.74537,3.27001 4.00634,7.31353 9.42733,7.43807 5.73974,0.13194 13.70667,-3.71667 16.50318,-2.17993 5.55357,3.05187 -1.17236,12.62542 5.44662,14.95515 6.49176,2.28498 15.46142,-5.35395 23.73636,-13.93438 8.08579,-8.38416 10.57213,-17.53493 19.76141,-18.69318 7.185,-0.90567 6.85007,6.0639 7.56409,10.07068 1.73151,9.71657 -2.70468,24.63759 -12.26,35.13062 -6.0832,6.68002 -18.62648,10.24861 -24.77333,11.67631 -2.02068,0.4693 -14.50327,2.46487 -14.1009,10.33699 0.55986,10.95172 16.2282,0.72731 16.97627,6.77854 0.87673,7.09064 -3.84858,11.77013 -3.68225,17.89295 0.13048,4.80026 7.1714,15.86167 7.82725,15.80811 30.78462,-2.51587 54.01264,-26.25628 64.64958,-58.97583 7.4747,-22.99215 8.47088,-51.45118 6.36087,-77.08587 -2.53302,-30.77321 -13.46278,-78.6194 -38.4462,-154.263325 z m -14.74804,49.819148 c 7.47393,0.04406 12.95514,4.025765 12.74307,6.920477 -0.37861,5.167746 -14.46244,0.440388 -20.75623,6.315974 -10.10369,9.432331 -8.03439,13.460026 -19.02911,20.151966 -8.20201,4.99211 -15.97603,7.65098 -19.88966,3.89123 -3.20398,-3.07804 -0.92216,-5.71544 6.8293,-10.5583 2.51968,-1.57425 10.54285,-6.614454 13.454,-9.888875 7.02656,-7.903493 11.18469,-11.630743 15.56768,-13.97948 3.87642,-2.077165 7.68382,-2.873036 11.08096,-2.85299 z m 0.27906,39.849627 c 12.70627,0.0374 18.42713,6.5799 18.21797,9.75054 -0.16877,2.5585 -2.53897,4.65607 -7.76261,6.60575 -2.59339,0.96784 -5.81251,1.84992 -9.96997,2.88109 -3.47929,0.8629 -10.48292,3.4841 -12.36977,4.5348 -8.38074,4.66706 -15.80167,10.64612 -20.51441,5.85232 -3.11696,-3.17053 -1.37999,-9.16627 3.22083,-15.08499 1.84404,-2.37229 3.8006,-5.16107 6.34075,-7.21596 4.10282,-3.31916 9.21399,-5.47306 14.013,-6.41927 3.24886,-0.64058 6.187,-0.91205 8.82421,-0.90432 z m 9.39133,77.17406 c 1.41721,0.0156 2.99917,0.22818 4.80398,0.68718 7.63256,1.94087 17.30105,17.89682 17.92114,19.79001 -14.58408,-6.90534 -21.85705,-10.58607 -25.50938,-11.0252 -4.08933,-0.49162 -11.35376,7.93777 -18.63722,6.94701 -6.91288,-0.94052 -11.77646,-9.50776 -11.41954,-9.62121 7.94582,1.07677 13.51383,1.94663 17.50411,-0.11471 6.02511,-3.11176 9.19564,-6.73082 15.33692,-6.66305 z"
     id="rect3628"
     inkscape:connector-curvature="0" />
  <path
     style="fill:#ffffff;fill-opacity:1;fill-rule:nonzero;stroke:none"
     d="m 235.08479,155.53251 c -0.36161,2.92557 -1.07687,5.38913 -7.79502,5.26956 -3.11142,-0.0554 -14.27332,-0.26228 -21.38575,0.97264 -3.24481,0.56355 -5.60823,1.35593 -7.72972,1.49223 -2.38812,0.15335 -5.50471,-1.14469 -6.15317,-2.41649 -2.51307,-4.92836 15.15913,-16.31566 27.87118,-15.41342 6.68588,0.47456 15.94393,4.01688 15.19247,10.09544 z"
     id="path3663"
     sodipodi:nodetypes="cssssss"
     inkscape:connector-curvature="0" />
  <path
     style="fill:url(#radialGradient3649);fill-opacity:1;fill-rule:nonzero;stroke:none"
     d="m 60.041014,106.49797 c 44.589596,24.6031 75.529956,39.39894 140.283286,67.0628 -19.67253,82.20076 2.4693,111.22056 -49.43921,154.07105 -21.23023,17.52553 -45.33203,26.8139 -74.441223,19.56679 C 47.395275,339.96653 27.245057,324.34277 11.234541,297.20065 -15.663431,251.60137 2.9268234,221.18249 60.041014,106.49797 z"
     id="rect2831-17-1-4"
     sodipodi:nodetypes="ccsssc"
     inkscape:connector-curvature="0" />
  <path
     style="fill:#ffffff;fill-opacity:1;fill-rule:nonzero;stroke:none"
     d="M 230.57963,94.828613 C 169.42252,112.72453 119.25231,99.026421 99.367017,83.766673 78.944028,101.83294 75.929019,112.96522 78.386295,120.18812 c 0.777071,2.28417 2.204142,3.50395 3.756028,5.37828 3.415685,4.12521 5.31382,11.06114 0.864237,18.92481 -1.393568,2.46291 -1.999139,4.13664 -15.403431,21.26641 -3.759084,4.80389 -6.449594,13.77526 -8.531919,20.76458 -1.433297,4.81057 -2.973276,12.42083 -0.584648,17.57804 2.887028,6.2336 11.101057,4.90042 11.653434,9.70905 0.561102,4.88456 -1.398709,10.55311 1.195491,12.26017 5.376549,3.53781 10.836821,4.10045 16.518754,5.88786 10.795408,3.39595 28.877989,11.6125 33.109069,40.62188 0.5082,3.48422 0.2212,7.81741 -1.92395,10.28359 -2.06995,2.37976 -8.79432,2.98106 -12.86519,1.44771 -8.903296,-3.35368 -9.943811,-11.01963 -14.7874,-18.11247 -4.349652,-6.36932 -9.595097,-11.01145 -15.476489,-12.06437 -4.875055,-0.87397 -18.537537,-3.86454 -19.153349,3.2e-4 -0.963711,6.04774 14.676997,8.62786 17.264356,15.95891 1.563148,4.42867 5.247982,11.45313 -1.61065,10.54496 -3.918379,-0.51885 -8.63488,-6.16249 -12.334066,-4.96543 -3.438058,1.11259 -4.28699,8.86383 -4.772828,11.89466 -1.951091,12.17006 5.129745,20.04124 12.882435,36.06998 8.552514,2.29937 17.010897,4.44851 23.201598,3.59595 37.123103,-5.11193 80.248223,-40.43844 98.710543,-70.73004 14.74948,-24.19989 30.3707,-90.77463 40.48131,-161.674357 z M 135.31778,114.0588 c 0.14437,0.0152 0.28809,0.0357 0.43555,0.0627 7.44975,1.37125 18.066,9.85389 21.21056,12.20047 7.82137,5.83654 23.51077,33.3685 18.50368,36.5895 -3.80466,2.44747 -16.36018,-19.87449 -24.91121,-25.76491 -1.68638,-1.16169 -5.6469,-4.13297 -9.28265,-6.05699 -4.03548,-2.13552 -7.95166,-3.03801 -10.80907,-5.45269 -2.4533,-2.07317 -2.75157,-4.88703 -2.67341,-5.84521 0.0943,-1.15702 3.05117,-6.20773 7.52653,-5.73293 z m -5.9138,31.39073 c 0.21483,0.0124 0.42855,0.0303 0.6402,0.0548 3.94452,0.46181 9.84716,3.77348 15.10524,8.91148 5.032,4.91719 11.45703,16.46313 7.97617,20.77813 -4.57695,5.67371 -19.67259,-5.95908 -24.37339,-8.44124 -4.81306,-2.54139 -17.24766,-4.86288 -16.04246,-9.2268 1.96717,-7.12289 10.03482,-12.47017 16.69428,-12.07695 z m -23.54764,65.09796 c 4.15013,8.56904 7.06686,15.4214 10.77853,21.53919 2.85962,4.71329 6.37802,8.90215 10.1465,13.67841 3.82267,4.84497 6.73356,8.89981 7.81171,14.38848 1.18348,6.025 0.25673,13.68898 -1.79719,24.04102 -5.85366,-22.83354 -6.41387,-24.63336 -9.03131,-29.95557 -3.36385,-6.83951 -20.32949,-19.8462 -17.90824,-43.69153 z"
     id="rect3700"
     inkscape:connector-curvature="0" />
  <path
     style="fill:#ffffff;fill-opacity:1;fill-rule:nonzero;stroke:none"
     d="m 73.560304,129.49624 c -0.23437,2.86969 -5.453067,4.69739 -11.358442,4.18672 -3.187676,-0.27609 -6.969177,-0.41073 -8.806006,-1.46412 -1.565996,-0.8981 -1.442069,-2.62283 -1.33438,-3.94349 0.233971,-2.86972 5.425005,-5.88031 11.33041,-5.36966 5.905389,0.51067 10.4024,3.72092 10.168405,6.59061 z"
     id="path3715"
     sodipodi:nodetypes="csssss"
     inkscape:connector-curvature="0" />
</svg>
